<?xml version="1.0" encoding="utf-8"?>
<!-- Generator: Adobe Illustrator 28.2.0, SVG Export Plug-In . SVG Version: 6.00 Build 0)  -->
<svg version="1.1" id="Layer_1" xmlns="http://www.w3.org/2000/svg" xmlns:xlink="http://www.w3.org/1999/xlink" x="0px" y="0px"
	 viewBox="0 0 300 300" style="enable-background:new 0 0 300 300;" xml:space="preserve">
<polygon points="279.8,221.8 206.9,199.3 243.4,266.2 184.7,217.5 192.9,293.4 157.3,225.9 135.8,299.1 128.8,223.1 80.9,282.5 
	103.5,209.6 36.5,246.2 85.2,187.5 9.4,195.6 76.9,160.1 3.7,138.6 79.6,131.5 20.2,83.6 93.1,106.2 56.6,39.3 115.3,88 107.1,12.1 
	142.7,79.6 164.2,6.4 171.2,82.4 219.1,23 196.5,95.9 263.5,59.3 214.8,118 290.6,109.9 223.1,145.4 296.3,166.9 220.4,174 "/>
</svg>
